<svg xmlns="http://www.w3.org/2000/svg" width="16" height="16" viewBox="0 0 16 16" fill="none">
  <path fill-rule="evenodd" clip-rule="evenodd" d="M8 2.29999C8.41421 2.29999 8.75 2.63577 8.75 3.04999V7.29999H13C13.4142 7.29999 13.75 7.63577 13.75 8.04999C13.75 8.4642 13.4142 8.79999 13 8.79999H8.75V13.05C8.75 13.4642 8.41421 13.8 8 13.8C7.58579 13.8 7.25 13.4642 7.25 13.05V8.79999H3C2.58579 8.79999 2.25 8.4642 2.25 8.04999C2.25 7.63577 2.58579 7.29999 3 7.29999H7.25V3.04999C7.25 2.63577 7.58579 2.29999 8 2.29999Z" fill="currentColor"/>
</svg>