<svg class="icon" width="200px" height="200.00px" viewBox="0 0 1024 1024" version="1.1" xmlns="http://www.w3.org/2000/svg"><path d="M674.048 859.008h-358.4c-85.333333 0-153.6-68.266667-153.6-153.6v-354.133333c0-85.333333 68.266667-153.6 153.6-153.6h149.333333c17.066667 0 29.866667 12.8 29.866667 29.866666s-12.8 34.133333-29.866667 34.133334h-149.333333c-51.2 0-89.6 38.4-89.6 89.6v354.133333c0 46.933333 42.666667 89.6 89.6 89.6h354.133333c51.2 0 89.6-38.4 89.6-89.6v-123.733333c0-17.066667 12.8-34.133333 34.133334-34.133334s34.133333 12.8 34.133333 34.133334v123.733333c0 85.333333-72.533333 153.6-153.6 153.6z" fill="currentColor"/><path d="M827.648 236.074667v17.066666c0 4.266667-4.266667 4.266667-4.266667 8.533334l-8.533333 8.533333-4.266667 4.266667-4.266666 4.266666-55.466667-55.466666 8.533333-8.533334 8.533334-8.533333c4.266667-4.266667 4.266667-4.266667 8.533333-4.266667h17.066667c4.266667 0 4.266667 0 8.533333 4.266667s8.533333 4.266667 12.8 12.8c4.266667 4.266667 8.533333 12.8 12.8 17.066667 0-4.266667 0 0 0 0z m-366.933333 268.8c4.266667-4.266667 12.8-8.533333 17.066666-17.066667l21.333334-21.333333 25.6-25.6 200.533333-200.533334 55.466667 55.466667-196.266667 204.8-25.6 21.333333-21.333333 21.333334-17.066667 17.066666-8.533333 8.533334s-4.266667 4.266667-8.533334 4.266666-4.266667 4.266667-4.266666 8.533334c-4.266667 0-8.533333 0-12.8 4.266666s-12.8 4.266667-17.066667 4.266667c-8.533333 4.266667-12.8 4.266667-17.066667 4.266667-4.266667 0-8.533333 4.266667-12.8 4.266666-4.266667 0-8.533333 0-12.8-4.266666 0-4.266667-4.266667-4.266667 0-12.8 0-4.266667 0-8.533333 4.266667-12.8 0-4.266667 4.266667-12.8 4.266667-17.066667 0-4.266667 4.266667-12.8 4.266666-17.066667 0-4.266667 4.266667-8.533333 4.266667-8.533333 0-4.266667 4.266667-4.266667 4.266667-8.533333 0 0 4.266667 0 4.266666-4.266667 4.266667 0 4.266667-4.266667 8.533334-8.533333z" fill="currentColor" /></svg>