<svg xmlns="http://www.w3.org/2000/svg" width="16" height="16" viewBox="0 0 16 16" fill="none">
  <path fill-rule="evenodd" clip-rule="evenodd" d="M3.00002 2.90002C3.3314 2.90002 3.60002 3.16865 3.60002 3.50002V11.9112H13C13.3314 11.9112 13.6 12.1798 13.6 12.5112C13.6 12.8426 13.3314 13.1112 13 13.1112H3.00002C2.66865 13.1112 2.40002 12.8426 2.40002 12.5112C2.40002 12.5093 2.40003 12.5075 2.40005 12.5056C2.40003 12.5038 2.40002 12.5019 2.40002 12.5V3.50002C2.40002 3.16865 2.66865 2.90002 3.00002 2.90002ZM9.40002 5.00002C9.40002 4.66865 9.66865 4.40002 10 4.40002H12.3077C12.6391 4.40002 12.9077 4.66865 12.9077 5.00002V7.30772C12.9077 7.63909 12.6391 7.90772 12.3077 7.90772C11.9763 7.90772 11.7077 7.63909 11.7077 7.30772V6.69303L9.67932 8.86761C9.56831 8.98662 9.41372 9.05543 9.251 9.05826C9.08827 9.06109 8.93138 8.9977 8.8163 8.88262L7.13751 7.20382L5.2691 8.90232C5.0239 9.12522 4.64443 9.10715 4.42153 8.86195C4.19863 8.61675 4.21671 8.23728 4.46191 8.01438L6.75364 5.93105C6.99062 5.71562 7.35503 5.72429 7.5815 5.95076L9.22555 7.59481L11.0862 5.60002H10C9.66865 5.60002 9.40002 5.3314 9.40002 5.00002Z" fill="currentColor"/>
</svg>