<svg xmlns="http://www.w3.org/2000/svg" width="16" height="16" viewBox="0 0 16 16" fill="none">
  <path fill-rule="evenodd" clip-rule="evenodd" d="M14.0484 13.5875L13.2203 8.8125H13.5C13.725 8.8125 13.9062 8.63125 13.9062 8.40625V5.40625C13.9062 5.18125 13.725 5 13.5 5H9.65625V2.15625C9.65625 1.93125 9.475 1.75 9.25 1.75H6.75C6.525 1.75 6.34375 1.93125 6.34375 2.15625V5H2.5C2.275 5 2.09375 5.18125 2.09375 5.40625V8.40625C2.09375 8.63125 2.275 8.8125 2.5 8.8125H2.77969L1.95156 13.5875C1.94687 13.6109 1.94531 13.6344 1.94531 13.6562C1.94531 13.8813 2.12656 14.0625 2.35156 14.0625H13.6484C13.6719 14.0625 13.6953 14.0609 13.7172 14.0562C13.9391 14.0187 14.0875 13.8078 14.0484 13.5875ZM3.1875 6.09375H7.4375V2.84375H8.5625V6.09375H12.8125V7.71875H3.1875V6.09375ZM10.5 10.5312V12.9688H12.8297L12.125 8.90625H3.87344L3.16875 12.9688H5.5V10.5312C5.5 10.4625 5.55625 10.4062 5.625 10.4062H6.375C6.44375 10.4062 6.5 10.4625 6.5 10.5312V12.9688H9.5V10.5312C9.5 10.4625 9.55625 10.4062 9.625 10.4062H10.375C10.4438 10.4062 10.5 10.4625 10.5 10.5312Z" fill="currentColor"/>
</svg>