<svg xmlns="http://www.w3.org/2000/svg" width="16" height="16" viewBox="0 0 16 16" fill="none">
  <path d="M8 2C4.68661 2 2 4.68661 2 8C2 11.3134 4.68661 14 8 14C11.3134 14 14 11.3134 14 8C14 4.68661 11.3134 2 8 2ZM8 12.9821C5.24911 12.9821 3.01786 10.7509 3.01786 8C3.01786 5.24911 5.24911 3.01786 8 3.01786C10.7509 3.01786 12.9821 5.24911 12.9821 8C12.9821 10.7509 10.7509 12.9821 8 12.9821Z" fill="currentColor"/>
  <path d="M10.3397 9.69556L8.42989 8.31476V5.00003C8.42989 4.9411 8.38168 4.89288 8.32275 4.89288H7.67855C7.61963 4.89288 7.57141 4.9411 7.57141 5.00003V8.68842C7.57141 8.72324 7.58748 8.75538 7.61561 8.77547L9.83079 10.3907C9.879 10.4255 9.94597 10.4148 9.98079 10.3679L10.3638 9.84556C10.3986 9.79601 10.3879 9.72904 10.3397 9.69556Z" fill="currentColor"/>
</svg>