<svg xmlns="http://www.w3.org/2000/svg" width="16" height="16" viewBox="0 0 16 16" fill="none">
  <path fill-rule="evenodd" clip-rule="evenodd" d="M2.1 4.7C2.70751 4.7 3.2 4.20751 3.2 3.6C3.2 2.99249 2.70751 2.5 2.1 2.5C1.49249 2.5 1 2.99249 1 3.6C1 4.20751 1.49249 4.7 2.1 4.7ZM5.57593 2.6H13.5759C14.1282 2.6 14.5759 3.04772 14.5759 3.6C14.5759 4.15228 14.1282 4.6 13.5759 4.6H5.57593C5.02364 4.6 4.57593 4.15228 4.57593 3.6C4.57593 3.04772 5.02364 2.6 5.57593 2.6Z" fill="currentColor"/>
  <path fill-rule="evenodd" clip-rule="evenodd" d="M2.1 9.7C2.70751 9.7 3.2 9.20751 3.2 8.6C3.2 7.99249 2.70751 7.5 2.1 7.5C1.49249 7.5 1 7.99249 1 8.6C1 9.20751 1.49249 9.7 2.1 9.7ZM5.57593 7.6H13.5759C14.1282 7.6 14.5759 8.04772 14.5759 8.6C14.5759 9.15228 14.1282 9.6 13.5759 9.6H5.57593C5.02364 9.6 4.57593 9.15228 4.57593 8.6C4.57593 8.04772 5.02364 7.6 5.57593 7.6Z" fill="currentColor"/>
  <path fill-rule="evenodd" clip-rule="evenodd" d="M2.1 14.7C2.70751 14.7 3.2 14.2075 3.2 13.6C3.2 12.9925 2.70751 12.5 2.1 12.5C1.49249 12.5 1 12.9925 1 13.6C1 14.2075 1.49249 14.7 2.1 14.7ZM5.57593 12.6H13.5759C14.1282 12.6 14.5759 13.0477 14.5759 13.6C14.5759 14.1523 14.1282 14.6 13.5759 14.6H5.57593C5.02364 14.6 4.57593 14.1523 4.57593 13.6C4.57593 13.0477 5.02364 12.6 5.57593 12.6Z" fill="currentColor"/>
</svg>