<svg xmlns="http://www.w3.org/2000/svg" width="16" height="16" viewBox="0 0 16 16" fill="none">
  <path fill-rule="evenodd" clip-rule="evenodd" d="M7.99998 1.33331C8.36817 1.33331 8.66665 1.63179 8.66665 1.99998L8.66665 8.3905L10.8619 6.19524C11.1223 5.93489 11.5444 5.93489 11.8047 6.19524C12.0651 6.45559 12.0651 6.8777 11.8047 7.13805L8.47139 10.4714C8.21104 10.7317 7.78893 10.7317 7.52858 10.4714L4.19524 7.13805C3.93489 6.8777 3.93489 6.45559 4.19524 6.19524C4.45559 5.93489 4.8777 5.93489 5.13805 6.19524L7.33331 8.3905L7.33331 1.99998C7.33331 1.63179 7.63179 1.33331 7.99998 1.33331ZM1.99998 9.33331C2.36817 9.33331 2.66665 9.63179 2.66665 9.99998V12.6666C2.66665 12.8435 2.73688 13.013 2.86191 13.1381C2.98693 13.2631 3.1565 13.3333 3.33331 13.3333H12.6666C12.8435 13.3333 13.013 13.2631 13.1381 13.1381C13.2631 13.013 13.3333 12.8435 13.3333 12.6666V9.99998C13.3333 9.63179 13.6318 9.33331 14 9.33331C14.3682 9.33331 14.6666 9.63179 14.6666 9.99998V12.6666C14.6666 13.1971 14.4559 13.7058 14.0809 14.0809C13.7058 14.4559 13.1971 14.6666 12.6666 14.6666H3.33331C2.80288 14.6666 2.29417 14.4559 1.9191 14.0809C1.54403 13.7058 1.33331 13.1971 1.33331 12.6666V9.99998C1.33331 9.63179 1.63179 9.33331 1.99998 9.33331Z" fill="currentColor"/>
</svg> 