<svg t="1733299771404" class="icon" viewBox="0 0 1024 1024" version="1.1" xmlns="http://www.w3.org/2000/svg" p-id="2388" xmlns:xlink="http://www.w3.org/1999/xlink" width="200" height="200">
<path d="M767.488 568.874667l80 142.250666L767.488 853.333333h-161.28l-80-142.208 80.042667-142.250666h161.28-0.042667z m-346.752-341.333334a42.666667 42.666667 0 0 1 23.722667 7.168l3.498666 2.602667 74.709334 47.146667H810.666667a42.666667 42.666667 0 0 1 42.453333 38.570666l0.213333 4.096V512a28.458667 28.458667 0 0 1-56.704 3.328L796.458667 512V341.333333h-278.570667a42.666667 42.666667 0 0 1-23.68-7.168l-3.498667-2.602666-74.666666-47.104H227.541333v455.082666h256a28.416 28.416 0 0 1 28.245334 25.130667L512 768a28.458667 28.458667 0 0 1-25.130667 28.245333l-3.328 0.213334H213.333333a42.666667 42.666667 0 0 1-42.453333-38.570667L170.666667 753.792V270.208a42.666667 42.666667 0 0 1 38.570666-42.453333L213.333333 227.541333h207.445334z m313.514667 398.250667h-94.72l-48.042667 85.333333 48.042667 85.333334h94.72l47.957333-85.333334-47.957333-85.333333z m-47.402667 42.666667a42.666667 42.666667 0 1 1 0 85.333333 42.666667 42.666667 0 0 1 0-85.333333z m24.277333-270.250667a28.458667 28.458667 0 0 1 0 56.917333H312.874667a28.416 28.416 0 1 1 0-56.917333h398.250666z" fill="currentColor" p-id="2389"></path></svg>