<svg class="icon" width="200px" height="200.00px" viewBox="0 0 1024 1024" version="1.1" xmlns="http://www.w3.org/2000/svg"><path d="M512 149.333333c-200.533333 0-362.666667 162.133333-362.666667 362.666667s162.133333 362.666667 362.666667 362.666667 362.666667-162.133333 362.666667-362.666667-162.133333-362.666667-362.666667-362.666667z m0 665.6c-166.4 0-302.933333-136.533333-302.933333-302.933333S345.6 209.066667 512 209.066667s302.933333 136.533333 302.933333 302.933333-136.533333 302.933333-302.933333 302.933333z" fill="currentColor" /><path d="M652.8 371.2l-132.266667 59.733333c-21.333333 0-46.933333 4.266667-59.733333 21.333334-21.333333 21.333333-29.866667 42.666667-25.6 64l-59.733333 136.533333 136.533333-59.733333c21.333333 0 46.933333-4.266667 59.733333-21.333334 17.066667-17.066667 25.6-38.4 21.333334-59.733333l59.733333-140.8z m-115.2 166.4c-12.8 12.8-34.133333 12.8-51.2 0-12.8-12.8-12.8-34.133333 0-51.2 12.8-12.8 34.133333-12.8 51.2 0 12.8 12.8 12.8 38.4 0 51.2z" fill="currentColor" /></svg>