<svg xmlns="http://www.w3.org/2000/svg" width="16" height="16" viewBox="0 0 16 16" fill="none">
  <rect opacity="0.01" width="16" height="16" fill="black"/>
  <path fill-rule="evenodd" clip-rule="evenodd" d="M8 -0.000244141C3.58214 -0.000244141 0 3.5819 0 7.99976C0 12.4176 3.58214 15.9998 8 15.9998C12.4179 15.9998 16 12.4176 16 7.99976C16 3.5819 12.4179 -0.000244141 8 -0.000244141ZM7.42856 4.14235C7.42856 4.06378 7.49284 3.99949 7.57141 3.99949H8.42856C8.50713 3.99949 8.57141 4.06378 8.57141 4.14235V8.99949C8.57141 9.07806 8.50713 9.14235 8.42856 9.14235H7.57141C7.49284 9.14235 7.42856 9.07806 7.42856 8.99949V4.14235ZM7.99998 11.9995C7.52677 11.9995 7.14284 11.6156 7.14284 11.1424C7.14284 10.6691 7.52677 10.2852 7.99998 10.2852C8.4732 10.2852 8.85713 10.6691 8.85713 11.1424C8.85713 11.6156 8.4732 11.9995 7.99998 11.9995Z" fill="currentColor"/>
</svg>