<svg width="16" height="16" viewBox="0 0 16 16" fill="none" xmlns="http://www.w3.org/2000/svg">
  <path fill-rule="evenodd" clip-rule="evenodd" d="M8 14.125C11.3824 14.125 14.125 11.3824 14.125 8C14.125 4.61758 11.3824 1.875 8 1.875C4.61758 1.875 1.875 4.61758 1.875 8C1.875 11.3824 4.61758 14.125 8 14.125ZM8 2.91406C10.8082 2.91406 13.0859 5.1918 13.0859 8C13.0859 10.8082 10.8082 13.0859 8 13.0859C5.1918 13.0859 2.91406 10.8082 2.91406 8C2.91406 5.1918 5.1918 2.91406 8 2.91406Z" fill="currentColor"/>
  <path d="M7.4 6C7.4 5.65482 7.67982 5.375 8.025 5.375C8.37018 5.375 8.65 5.65482 8.65 6V8.375C8.65 8.72018 8.37018 9 8.025 9C7.67982 9 7.4 8.72018 7.4 8.375V6Z" fill="currentColor"/>
  <path d="M7.3 10.25C7.3 10.6642 7.63579 11 8.05 11C8.46421 11 8.8 10.6642 8.8 10.25C8.8 9.83579 8.46421 9.5 8.05 9.5C7.63579 9.5 7.3 9.83579 7.3 10.25Z" fill="currentColor"/>
  </svg>
  