<svg class="icon" width="200px" height="200.00px" viewBox="0 0 1024 1024" version="1.1" xmlns="http://www.w3.org/2000/svg"><path d="M693.76 713.941333a27.008 27.008 0 1 1 0 54.058667H317.056a27.008 27.008 0 1 1 0-54.058667h376.618667zM791.893333 213.333333c25.173333 0 45.525333 20.394667 45.525334 45.525334v359.466666c0 25.130667-20.394667 45.525333-45.525334 45.525334H216.192c-25.173333 0-45.525333-20.394667-45.525333-45.525334V258.858667C170.666667 233.685333 191.061333 213.333333 216.192 213.333333H791.893333z m-8.533333 54.058667H224.725333v342.4H783.36V267.392zM418.133333 330.282667l38.229334 38.186666-70.101334 70.101334 70.101334 70.101333-38.229334 38.229333-108.330666-108.330666L418.133333 330.282667z m171.818667 0l108.330667 108.288-108.330667 108.330666-38.229333-38.229333 70.101333-70.101333-70.101333-70.101334 38.229333-38.186666z" fill="currentColor" /></svg>