<svg xmlns="http://www.w3.org/2000/svg" width="16" height="16" viewBox="0 0 16 16" fill="none">
  <path d="M3.00285 1.85326H9.17569L12.1876 4.77418V6.73194H13.3461V4.75763C13.3461 4.45644 13.222 4.16517 13.0068 3.955L9.9717 1.01091C9.76153 0.807351 9.48516 0.696472 9.19389 0.696472H2.96314C2.34751 0.696472 1.84607 1.19791 1.84607 1.81354V13.0802C1.84607 13.6958 2.34751 14.1973 2.96314 14.1973H7.20799V13.0388H3.00451V1.85326H3.00285Z" fill="currentColor"/>
  <path d="M14.2734 13.2266L13.3641 12.4844C14.2016 11.2813 14.0828 9.61095 13.0109 8.53907C12.4281 7.95626 11.6531 7.63439 10.8281 7.63439C10.0031 7.63439 9.22812 7.95626 8.64531 8.53907C8.0625 9.12189 7.74062 9.89689 7.74062 10.7219C7.74062 11.5469 8.0625 12.3219 8.64531 12.9047C9.24687 13.5063 10.0375 13.8078 10.8281 13.8078C11.4453 13.8078 12.0625 13.625 12.5906 13.2578L13.5 14C13.7141 14.2141 14.0594 14.2141 14.2734 14C14.4875 13.7875 14.4875 13.4406 14.2734 13.2266ZM9.41875 12.1328C9.04219 11.7563 8.83437 11.2563 8.83437 10.7234C8.83437 10.1906 9.04219 9.69064 9.41875 9.31407C9.79531 8.93751 10.2953 8.7297 10.8281 8.7297C11.3609 8.7297 11.8609 8.93751 12.2375 9.31407C13.0141 10.0906 13.0141 11.3563 12.2375 12.1328C11.4609 12.9094 10.1969 12.9094 9.41875 12.1328ZM4.17187 4.59375C3.87031 4.59375 3.625 4.83906 3.625 5.14062C3.625 5.44219 3.87031 5.6875 4.17187 5.6875H8.71562C9.01719 5.6875 9.2625 5.44219 9.2625 5.14062C9.2625 4.83906 9.01719 4.59375 8.71562 4.59375H4.17187ZM6.9 7.16876H4.17187C3.87031 7.16876 3.625 7.41407 3.625 7.71564C3.625 8.0172 3.87031 8.26251 4.17187 8.26251H6.9C7.20156 8.26251 7.44687 8.0172 7.44687 7.71564C7.44687 7.41407 7.20156 7.16876 6.9 7.16876Z" fill="currentColor"/>
</svg>