<svg t="1733299087356" class="icon" viewBox="0 0 1024 1024" version="1.1" xmlns="http://www.w3.org/2000/svg" p-id="1961" xmlns:xlink="http://www.w3.org/1999/xlink" width="200" height="200">
<path d="M398.592 569.344V458.0352c0-52.9408 39.6288-95.3344 87.296-95.3344h210.176V166.8096a41.0112 41.0112 0 0 0-10.496-27.3408 34.4576 34.4576 0 0 0-25.088-11.4688H159.5904a34.4576 34.4576 0 0 0-25.088 11.4688 41.0624 41.0624 0 0 0-10.496 27.3408v693.76c0 21.1968 16.1792 38.912 35.584 38.912h502.528a34.4576 34.4576 0 0 0 25.088-11.52 41.0624 41.0624 0 0 0 10.496-27.392V664.576H487.5264c-49.3056 0-88.9344-43.2128-88.9344-95.3344z" p-id="1962" fill="currentColor"></path>
<path d="M984.6784 488.8064l-185.1392-216.2688a23.9104 23.9104 0 0 0-27.4432-3.4816 26.7264 26.7264 0 0 0-10.7008 10.4448 30.1568 30.1568 0 0 0-3.8912 15.104v133.3248H485.888c-14.5408 0-25.856 12.288-25.856 28.16v111.2576c0 15.872 11.264 28.2112 25.856 28.2112h271.616v133.3248c0 23.808 25.088 36.1472 42.0352 22.016l185.1392-217.088a29.0816 29.0816 0 0 0 7.168-10.0864 31.488 31.488 0 0 0 0-24.832 29.0304 29.0304 0 0 0-7.168-10.0864z" p-id="1963" fill="currentColor"></path>
</svg>