<svg class="icon" width="200px" height="200.00px" viewBox="0 0 1024 1024" version="1.1" xmlns="http://www.w3.org/2000/svg"><path d="M180.608 179.2h661.333333c29.866667 0 51.2 25.6 51.2 51.2 0 29.866667-25.6 51.2-51.2 51.2h-661.333333c-29.866667 0-51.2-25.6-51.2-51.2s21.333333-51.2 51.2-51.2zM180.608 460.8h661.333333c29.866667 0 51.2 25.6 51.2 51.2 0 29.866667-25.6 51.2-51.2 51.2h-661.333333c-29.866667 0-51.2-25.6-51.2-51.2 0-29.866667 21.333333-51.2 51.2-51.2zM180.608 733.866667h661.333333c29.866667 0 51.2 25.6 51.2 51.2 0 29.866667-25.6 51.2-51.2 51.2h-661.333333c-29.866667 0-51.2-25.6-51.2-51.2s21.333333-51.2 51.2-51.2z" fill="currentColor"/></svg>