<svg t="1733299440671" class="icon" viewBox="0 0 1024 1024" version="1.1" xmlns="http://www.w3.org/2000/svg" p-id="2104" xmlns:xlink="http://www.w3.org/1999/xlink" width="200" height="200">
<path d="M186.368 837.632A461.4144 461.4144 0 0 0 512 972.8a461.4144 461.4144 0 0 0 460.8-460.8 461.4144 461.4144 0 0 0-460.8-460.8 461.4144 461.4144 0 0 0-460.8 460.8 461.4144 461.4144 0 0 0 135.168 325.632z m354.304-262.1952h147.4048l-0.0512-0.1024c7.5776 0 14.8992 3.1744 20.2752 8.8064a30.72 30.72 0 0 1 8.448 21.248 30.72 30.72 0 0 1-8.448 21.248 28.1088 28.1088 0 0 1-20.2752 8.8064h-147.456v101.0688a31.2832 31.2832 0 0 1-7.8848 22.1696 28.7744 28.7744 0 0 1-20.7872 9.3184 27.648 27.648 0 0 1-20.7872-9.3184 30.3104 30.3104 0 0 1-7.8848-22.1696V635.392H335.872a28.1088 28.1088 0 0 1-20.3264-8.8064 30.72 30.72 0 0 1-8.3968-21.248 30.72 30.72 0 0 1 8.3968-21.248 28.16 28.16 0 0 1 20.3264-8.8064h147.3024v-60.0064H335.872a28.16 28.16 0 0 1-20.3264-8.8064A30.72 30.72 0 0 1 307.2 485.2736a30.72 30.72 0 0 1 8.3968-21.248 28.1088 28.1088 0 0 1 20.3264-8.7552H483.328v-15.7184L357.0688 307.5584a30.1568 30.1568 0 0 1-8.4992-21.3504 31.232 31.232 0 0 1 8.4992-21.2992A28.672 28.672 0 0 1 377.4976 256a27.648 27.648 0 0 1 20.3776 8.9088L512 384.9728l114.1248-120.064A28.672 28.672 0 0 1 646.5024 256a27.648 27.648 0 0 1 20.3776 8.8576 30.208 30.208 0 0 1 8.4992 21.2992 31.232 31.232 0 0 1-8.4992 21.3504L540.672 439.552v15.7696h147.4048c7.6288 0 14.8992 3.1744 20.3264 8.8064A30.72 30.72 0 0 1 716.8 485.376a30.72 30.72 0 0 1-8.3968 21.248 28.1088 28.1088 0 0 1-20.3264 8.7552h-147.456v60.0576z" p-id="2105" fill="currentColor">
</path></svg>