<svg class="icon" width="200px" height="200.00px" viewBox="0 0 1024 1024" version="1.1" xmlns="http://www.w3.org/2000/svg"><path d="M813.909333 298.666667h77.568l-177.621333 201.813333L917.333333 768h-82.090666l-162.986667-220.885333-52.309333 58.538666V768h-61.226667V298.666667h61.226667v226.773333L813.909333 298.666667zM192 298.666667h166.4c95.573333 0 143.36 47.36 143.36 142.634666 0 96-48.384 143.957333-144.512 143.957334H253.269333V768H192V298.666667z m61.269333 61.141333v164.309333h100.053334c30.378667 0 52.266667-6.570667 66.346666-19.712 13.482667-13.141333 20.778667-34.176 20.778667-63.104s-7.296-49.92-21.333333-61.781333c-14.08-13.141333-36.010667-19.712-65.792-19.712H253.269333z" fill="currentColor" /></svg>