<svg t="1733299559707" class="icon" viewBox="0 0 1024 1024" version="1.1" xmlns="http://www.w3.org/2000/svg" p-id="2246" xmlns:xlink="http://www.w3.org/1999/xlink" width="200" height="200"><path d="M952.0128 420.4544l-180.48-224.6656a100.608 100.608 0 0 0-77.1072-37.7344H330.24c-29.4912 0-57.344 13.1584-77.1072 37.7344L72.8064 420.4544c-31.1296 37.7344-27.8528 93.4912 4.9664 129.536l365.7216 387.1744 4.9664 4.9664c17.9712 16.4352 42.6496 26.2144 67.2256 26.2144h3.328c26.2144-1.6384 50.7904-11.52 68.864-31.1808l357.5296-385.4848c34.4576-37.7344 36.096-93.4912 6.6048-131.2256z m-217.8048 88.576l-170.5984 185.344c-26.2144 26.2656-67.2256 27.904-93.44 3.328l-3.328-3.2768L289.792 507.3408c-11.52-13.1584-11.52-34.4064 1.6384-45.9264 14.848-13.1584 34.4576-11.52 47.616 1.6384l175.5136 185.344 170.5984-182.0672a35.328 35.328 0 0 1 47.616-3.2768c12.9536 11.52 12.9536 32.8704 1.4336 45.9776z" p-id="2247" fill="currentColor"></path></svg>