<svg xmlns="http://www.w3.org/2000/svg" width="16" height="16" viewBox="0 0 16 16" fill="none">
  <path fill-rule="evenodd" clip-rule="evenodd" d="M4.7513 5.27731L2.15162 5.74358V5.7436C1.98318 5.77389 1.81137 5.71206 1.70084 5.5814C1.59032 5.45073 1.55785 5.27104 1.61566 5.10995L2.5111 2.62684C2.56888 2.4655 2.7084 2.34729 2.87703 2.31679C3.04567 2.28629 3.21776 2.34814 3.32839 2.47902L3.79986 3.03581C6.54608 0.71745 10.6533 1.06261 12.9717 3.80881C13.8712 4.87371 14.4024 6.20092 14.4858 7.59241L14.4903 7.6074C14.4929 7.62307 14.4932 7.63815 14.4935 7.65343C14.4937 7.66101 14.4938 7.66864 14.4942 7.67642L14.4956 7.69336C14.5212 7.90822 14.4271 8.11987 14.2504 8.24471C14.0736 8.36954 13.8427 8.38747 13.6488 8.29142C13.4549 8.19536 13.3292 8.00077 13.3214 7.78452C13.3195 7.77448 13.3194 7.76379 13.3192 7.7532C13.3191 7.74525 13.319 7.73736 13.3181 7.72982H13.3116C13.2558 6.56947 12.8191 5.45987 12.0691 4.57269C10.171 2.32609 6.81116 2.0432 4.56409 3.94071L5.03263 4.49584C5.14335 4.62665 5.17581 4.80662 5.11776 4.96787C5.05971 5.12911 4.91999 5.2471 4.7513 5.27731ZM11.2214 10.7203L13.8218 10.254H13.8211C13.9896 10.2233 14.1617 10.285 14.2724 10.4158C14.383 10.5466 14.4153 10.7265 14.3571 10.8876L13.4623 13.3714C13.4044 13.5326 13.2648 13.6507 13.0961 13.681C12.9275 13.7114 12.7555 13.6495 12.645 13.5186L12.1963 12.9878C9.44944 15.3055 5.34479 14.9584 3.02447 12.2129C2.12921 11.153 1.5984 9.83337 1.51038 8.44879C1.51038 8.44555 1.50938 8.44207 1.5083 8.43833C1.50765 8.43605 1.50697 8.43368 1.50647 8.43121C1.45865 8.10805 1.68107 7.80704 2.00401 7.75785C2.15927 7.73377 2.31772 7.7726 2.44425 7.86576C2.57077 7.95891 2.65491 8.09867 2.67803 8.25408C2.68194 8.28338 2.68194 8.31333 2.68194 8.34199H2.68844C2.75501 9.48481 3.19082 10.5751 3.93033 11.449C5.82759 13.6946 9.1854 13.9788 11.4331 12.0839L10.9407 11.5017C10.83 11.371 10.7975 11.1912 10.8554 11.0299C10.9133 10.8687 11.0528 10.7507 11.2214 10.7203Z" fill="currentColor"/>
</svg>