<svg xmlns="http://www.w3.org/2000/svg" width="16" height="16" viewBox="0 0 16 16" fill="none">
  <path d="M12.5762 12.4526C11.4386 13.8716 9.767 14.7296 7.9538 14.7296C5.0876 14.7296 2.6258 12.5888 2 9.61995L3.191 9.32955C3.6914 11.7026 5.6612 13.4156 7.9538 13.4156C9.4454 13.4156 10.8164 12.6896 11.7278 11.498L10.4 10.0046H14V14.0546L12.5762 12.4526ZM3.4238 5.00655C4.5614 3.58755 6.233 2.72955 8.0462 2.72955C10.9124 2.72955 13.3742 4.87035 14 7.83915L12.809 8.12955C12.3086 5.75655 10.3388 4.04355 8.0462 4.04355C6.5546 4.04355 5.1836 4.76955 4.2722 5.96115L5.6 7.45455H2V3.40455L3.4238 5.00655Z" fill="currentColor"/>
</svg>