<svg xmlns="http://www.w3.org/2000/svg" width="16" height="16" viewBox="0 0 16 16" fill="none">
  <path d="M14.25 3C14.25 2.625 14 2.375 13.625 2.375C13.25 2.375 13 2.625 13 3V4.1875C12.8125 3.9375 12.5625 3.75 12.4375 3.5625C11.25 2.375 9.6875 1.75 8 1.75C4.5625 1.75 1.75 4.5625 1.75 8C1.75 11.4375 4.5625 14.25 8 14.25C9.6875 14.25 11.25 13.625 12.4375 12.4375C12.6875 12.1875 12.6875 11.8125 12.4375 11.5625C12.1875 11.3125 11.8125 11.3125 11.5625 11.5625C10.5625 12.5 9.3125 13 8 13C5.25 13 3 10.75 3 8C3 5.25 5.25 3 8 3C9.3125 3 10.5625 3.5 11.5625 4.4375C11.75 4.625 12 4.875 12.25 5.1875H10.875C10.5 5.1875 10.25 5.4375 10.25 5.8125C10.25 6.1875 10.5 6.4375 10.875 6.4375H13.8125C13.875 6.4375 14.1875 6.4375 14.25 6.4375C14.25 5.11538 14.25 3 14.25 3Z" fill="currentColor"/>
</svg>