<svg xmlns="http://www.w3.org/2000/svg" width="16" height="16" viewBox="0 0 16 16" fill="none">
  <path d="M8.50001 1.18756C4.51311 1.18756 1.25002 4.45016 1.25002 8.43755C1.25002 12.4245 4.51309 15.6876 8.50001 15.6876C12.4874 15.6876 15.75 12.4245 15.75 8.43755C15.75 4.45016 12.4874 1.18756 8.50001 1.18756ZM8.50001 14.2375C5.31037 14.2375 2.70013 11.6272 2.70013 8.43755C2.70013 5.24744 5.31037 2.63717 8.50001 2.63717C11.6901 2.63717 14.3004 5.24744 14.3004 8.43755C14.3004 11.6272 11.6901 14.2375 8.50001 14.2375Z" fill="currentColor"/>
  <path d="M7.41023 5.74848L11.3702 8.06723C11.5786 8.19087 11.6497 8.46018 11.5261 8.66851C11.4871 8.73287 11.4329 8.78707 11.3685 8.82603L7.41023 11.1278C7.20021 11.2498 6.9309 11.1787 6.80895 10.9703C6.77 10.9026 6.74967 10.8264 6.74967 10.7484V6.12618C6.74967 5.88398 6.94615 5.6875 7.19005 5.6875C7.26627 5.6875 7.34248 5.70783 7.41023 5.74848Z" fill="currentColor"/>
</svg>