<svg xmlns="http://www.w3.org/2000/svg" width="16" height="16" viewBox="0 0 16 16" fill="none">
  <path fill-rule="evenodd" clip-rule="evenodd" d="M7.87503 1.96594C7.71831 1.96594 7.56801 2.02819 7.45719 2.13901C7.34637 2.24983 7.28412 2.40013 7.28412 2.55685V2.65966C7.2829 2.96504 7.19241 3.26341 7.02379 3.51803C6.85517 3.77264 6.61577 3.9724 6.33508 4.0927C6.28511 4.11411 6.23255 4.12848 6.17889 4.1355C5.92383 4.22481 5.64927 4.24683 5.38198 4.19837C5.07412 4.14255 4.79004 3.99578 4.56637 3.77699L4.56171 3.77243L4.52628 3.73695C4.4714 3.68201 4.406 3.6382 4.33426 3.60846C4.26253 3.57872 4.18564 3.56342 4.10798 3.56342C4.03033 3.56342 3.95343 3.57872 3.8817 3.60846C3.80996 3.6382 3.74479 3.68178 3.68991 3.73672C3.63497 3.7916 3.59092 3.85724 3.56119 3.92897C3.53145 4.00071 3.51614 4.0776 3.51614 4.15525C3.51614 4.23291 3.53145 4.3098 3.56119 4.38154C3.59092 4.45327 3.63451 4.51844 3.68945 4.57332L3.72974 4.61362C3.94853 4.83729 4.09527 5.12139 4.15109 5.42926C4.20581 5.73099 4.17069 6.04201 4.05034 6.32376C3.94069 6.61127 3.74869 6.86024 3.49819 7.03941C3.24262 7.2222 2.93797 7.32388 2.62385 7.33123L2.61003 7.33155L2.55685 7.33139C2.40013 7.33139 2.24983 7.39365 2.13901 7.50446C2.02819 7.61528 1.96594 7.76558 1.96594 7.9223C1.96594 8.07902 2.02819 8.22932 2.13901 8.34014C2.24983 8.45095 2.40013 8.51321 2.55685 8.51321H2.65966C2.96504 8.51443 3.26341 8.60492 3.51803 8.77354C3.77176 8.94158 3.97101 9.17989 4.09144 9.45932C4.21676 9.74481 4.254 10.0612 4.19837 10.3681C4.14255 10.6759 3.99578 10.96 3.77699 11.1837L3.77244 11.1883L3.73696 11.2238C3.68202 11.2786 3.6382 11.3441 3.60846 11.4158C3.57872 11.4875 3.56342 11.5644 3.56342 11.6421C3.56342 11.7197 3.57872 11.7966 3.60846 11.8684C3.6382 11.9401 3.68178 12.0053 3.73672 12.0601C3.7916 12.1151 3.85723 12.1591 3.92897 12.1889C4.00071 12.2186 4.0776 12.2339 4.15525 12.2339C4.23291 12.2339 4.3098 12.2186 4.38154 12.1889C4.45327 12.1591 4.51844 12.1155 4.57332 12.0606L4.61362 12.0203C4.83729 11.8015 5.1214 11.6548 5.42926 11.599C5.73099 11.5442 6.04201 11.5794 6.32377 11.6997C6.61127 11.8094 6.86024 12.0014 7.03941 12.2519C7.2222 12.5074 7.32388 12.8121 7.33123 13.1262L7.33155 13.14L7.33139 13.1932C7.33139 13.3499 7.39365 13.5002 7.50446 13.611C7.61528 13.7219 7.76558 13.7841 7.9223 13.7841C8.07902 13.7841 8.22932 13.7219 8.34014 13.611C8.45095 13.5002 8.51321 13.3499 8.51321 13.1932V13.0928L8.51321 13.0904C8.51443 12.785 8.60492 12.4866 8.77354 12.232C8.94157 11.9783 9.17989 11.779 9.45932 11.6586C9.74482 11.5333 10.0612 11.4961 10.3681 11.5517C10.6759 11.6075 10.96 11.7543 11.1837 11.9731L11.1883 11.9776L11.2238 12.0131C11.2787 12.068 11.3441 12.1119 11.4158 12.1416C11.4875 12.1713 11.5644 12.1866 11.6421 12.1866C11.7197 12.1866 11.7966 12.1713 11.8684 12.1416C11.9401 12.1119 12.0053 12.0683 12.0601 12.0133C12.1151 11.9585 12.1591 11.8928 12.1889 11.8211C12.2186 11.7493 12.2339 11.6725 12.2339 11.5948C12.2339 11.5171 12.2186 11.4403 12.1889 11.3685C12.1591 11.2968 12.1155 11.2316 12.0606 11.1767L12.0203 11.1364C11.8015 10.9128 11.6548 10.6287 11.599 10.3208C11.5433 10.014 11.5806 9.69754 11.7059 9.41205C11.8263 9.13262 12.0256 8.8943 12.2793 8.72627C12.5339 8.55765 12.8323 8.46716 13.1377 8.46594L13.14 8.46593L13.1932 8.46594C13.3499 8.46594 13.5002 8.40368 13.611 8.29286C13.7219 8.18205 13.7841 8.03175 13.7841 7.87503C13.7841 7.71831 13.7219 7.56801 13.611 7.45719C13.5002 7.34637 13.3499 7.28412 13.1932 7.28412H13.0928L13.0904 7.28411C12.785 7.2829 12.4866 7.19241 12.232 7.02379C11.9774 6.85517 11.7777 6.61578 11.6574 6.33508C11.6359 6.28511 11.6216 6.23255 11.6146 6.17889C11.5252 5.92383 11.5032 5.64926 11.5517 5.38198C11.6075 5.07412 11.7543 4.79004 11.9731 4.56637L11.9776 4.56171L12.0131 4.52628C12.068 4.4714 12.1119 4.406 12.1416 4.33426C12.1713 4.26253 12.1866 4.18564 12.1866 4.10798C12.1866 4.03033 12.1713 3.95344 12.1416 3.8817C12.1119 3.80996 12.0683 3.74479 12.0133 3.68991C11.9585 3.63497 11.8928 3.59092 11.8211 3.56119C11.7493 3.53145 11.6725 3.51614 11.5948 3.51614C11.5171 3.51614 11.4403 3.53145 11.3685 3.56119C11.2968 3.59092 11.2316 3.63451 11.1767 3.68945L11.1364 3.72974C10.9128 3.94853 10.6287 4.09527 10.3208 4.15109C10.014 4.20673 9.69754 4.16948 9.41205 4.04417C9.13262 3.92374 8.8943 3.72449 8.72627 3.47075C8.55765 3.21614 8.46716 2.91777 8.46594 2.61238L8.46594 2.61003V2.55685C8.46594 2.40013 8.40368 2.24983 8.29286 2.13901C8.18205 2.02819 8.03175 1.96594 7.87503 1.96594ZM6.62152 1.30334C6.95397 0.970888 7.40487 0.784119 7.87503 0.784119C8.34518 0.784119 8.79608 0.970888 9.12853 1.30334C9.46098 1.63579 9.64775 2.08669 9.64775 2.55685V2.60859C9.64823 2.68318 9.67041 2.75602 9.7116 2.81821C9.75296 2.88067 9.81168 2.92966 9.88053 2.95917L9.88636 2.96167C9.95657 2.99266 10.0344 3.00193 10.11 2.98824C10.1846 2.97469 10.2536 2.93932 10.3082 2.88662L10.3406 2.85424C10.3405 2.85432 10.3407 2.85416 10.3406 2.85424C10.5052 2.68953 10.7008 2.55862 10.916 2.46945C11.1312 2.38024 11.3618 2.33433 11.5948 2.33433C11.8278 2.33433 12.0584 2.38024 12.2736 2.46945C12.4887 2.55858 12.684 2.68918 12.8485 2.85378C13.0134 3.01842 13.1441 3.21393 13.2333 3.42913C13.3225 3.64434 13.3685 3.87502 13.3685 4.10798C13.3685 4.34095 13.3225 4.57163 13.2333 4.78683C13.1441 5.00204 13.0134 5.19755 12.8485 5.36219L12.8161 5.39458C12.7634 5.44916 12.7281 5.51814 12.7145 5.59283C12.7009 5.66835 12.7101 5.74623 12.7411 5.81644C12.7578 5.85428 12.7704 5.89366 12.7788 5.93393C12.8068 5.97513 12.8427 6.0107 12.8846 6.03845C12.9468 6.07964 13.0196 6.10182 13.0942 6.1023H13.1932C13.6634 6.1023 14.1143 6.28907 14.4467 6.62152C14.7792 6.95397 14.9659 7.40487 14.9659 7.87503C14.9659 8.34518 14.7792 8.79608 14.4467 9.12853C14.1143 9.46098 13.6634 9.64775 13.1932 9.64775H13.1415C13.0669 9.64823 12.994 9.67041 12.9318 9.7116C12.8694 9.75296 12.8204 9.81168 12.7909 9.88053L12.7884 9.88636C12.7574 9.95657 12.7481 10.0344 12.7618 10.11C12.7754 10.1846 12.8107 10.2536 12.8634 10.3082L12.8958 10.3406C13.0606 10.5052 13.1914 10.7007 13.2806 10.916C13.3698 11.1312 13.4157 11.3618 13.4157 11.5948C13.4157 11.8278 13.3698 12.0584 13.2806 12.2736C13.1914 12.4888 13.0608 12.6842 12.896 12.8488C12.7315 13.0135 12.536 13.1442 12.3209 13.2333C12.1057 13.3225 11.875 13.3685 11.6421 13.3685C11.4091 13.3685 11.1784 13.3225 10.9632 13.2333C10.748 13.1441 10.5525 13.0134 10.3879 12.8485L10.3555 12.8162C10.3009 12.7635 10.2319 12.7281 10.1572 12.7145C10.0817 12.7009 10.0038 12.7101 9.93362 12.7411L9.92782 12.7436C9.85897 12.7731 9.80024 12.8221 9.75888 12.8846C9.71769 12.9468 9.6955 13.0196 9.69503 13.0942V13.1932C9.69503 13.6634 9.50826 14.1143 9.17581 14.4467C8.84336 14.7792 8.39246 14.9659 7.9223 14.9659C7.45214 14.9659 7.00124 14.7792 6.66879 14.4467C6.33634 14.1143 6.14957 13.6634 6.14957 13.1932V13.1485C6.14677 13.0734 6.12196 13.0006 6.07816 12.9394C6.03332 12.8767 5.97066 12.8289 5.89833 12.8023C5.88665 12.798 5.8751 12.7934 5.86371 12.7884C5.7935 12.7574 5.71562 12.7481 5.6401 12.7618C5.56542 12.7754 5.49644 12.8107 5.44186 12.8634L5.40946 12.8958C5.24482 13.0606 5.04931 13.1914 4.8341 13.2806C4.6189 13.3698 4.38822 13.4157 4.15525 13.4157C3.92229 13.4157 3.69161 13.3698 3.47641 13.2806C3.2612 13.1914 3.06569 13.0606 2.90105 12.8958C2.73645 12.7313 2.60585 12.5359 2.51673 12.3209C2.42752 12.1057 2.3816 11.875 2.3816 11.6421C2.3816 11.4091 2.42752 11.1784 2.51673 10.9632C2.6059 10.7481 2.73657 10.5527 2.90128 10.3881C2.9012 10.3882 2.90136 10.388 2.90128 10.3881L2.93389 10.3555C2.9866 10.3009 3.02197 10.2319 3.03551 10.1572C3.0492 10.0817 3.03996 10.0038 3.00897 9.93362L3.00641 9.92782C2.97691 9.85897 2.92794 9.80024 2.86549 9.75888C2.80329 9.71769 2.73045 9.6955 2.65586 9.69503H2.55685C2.08669 9.69503 1.63579 9.50826 1.30334 9.17581C0.970888 8.84336 0.784119 8.39246 0.784119 7.9223C0.784119 7.45214 0.970888 7.00124 1.30334 6.66879C1.63579 6.33634 2.08669 6.14957 2.55685 6.14957H2.60154C2.6767 6.14677 2.74943 6.12196 2.81067 6.07816C2.87336 6.03332 2.92111 5.97066 2.94771 5.89833C2.95201 5.88665 2.95667 5.8751 2.9617 5.86371C2.99269 5.7935 3.00193 5.71562 2.98824 5.6401C2.9747 5.56541 2.93933 5.49643 2.88663 5.44185L2.85424 5.40946C2.68942 5.24482 2.55867 5.04931 2.46945 4.8341C2.38024 4.6189 2.33433 4.38822 2.33433 4.15525C2.33433 3.92229 2.38024 3.69161 2.46945 3.47641C2.55862 3.2613 2.6893 3.06587 2.85401 2.90128C3.0186 2.73657 3.21403 2.6059 3.42913 2.51673C3.64434 2.42752 3.87502 2.3816 4.10798 2.3816C4.34095 2.3816 4.57162 2.42752 4.78683 2.51673C5.00194 2.6059 5.19736 2.73657 5.36195 2.90128C5.36188 2.90121 5.36203 2.90136 5.36195 2.90128L5.39458 2.93391C5.44916 2.9866 5.51814 3.02197 5.59283 3.03551C5.66834 3.0492 5.74623 3.03996 5.81644 3.00897C5.85428 2.99227 5.89367 2.97964 5.93393 2.9712C5.97513 2.94324 6.0107 2.90739 6.03845 2.86549C6.07964 2.80329 6.10182 2.73045 6.1023 2.65586V2.55685C6.1023 2.08669 6.28907 1.63579 6.62152 1.30334ZM7.87502 6.69299C7.22232 6.69299 6.6932 7.22211 6.6932 7.87481C6.6932 8.52751 7.22232 9.05662 7.87502 9.05662C8.52772 9.05662 9.05684 8.52751 9.05684 7.87481C9.05684 7.22211 8.52772 6.69299 7.87502 6.69299ZM5.51138 7.87481C5.51138 6.56941 6.56962 5.51117 7.87502 5.51117C9.18042 5.51117 10.2387 6.56941 10.2387 7.87481C10.2387 9.18021 9.18042 10.2384 7.87502 10.2384C6.56962 10.2384 5.51138 9.18021 5.51138 7.87481Z" fill="currentColor"/>
</svg>