<svg class="icon" width="200px" height="200.00px" viewBox="0 0 1024 1024" version="1.1" xmlns="http://www.w3.org/2000/svg"><path d="M512 243.2l76.8 149.333333 17.066667 29.866667 34.133333 4.266667 166.4 25.6-123.733333 115.2-25.6 25.6 4.266666 34.133333 29.866667 166.4-145.066667-76.8c-12.8-4.266667-25.6-8.533333-34.133333-8.533333s-25.6 4.266667-34.133333 8.533333l-145.066667 76.8 29.866667-166.4 4.266666-34.133333-25.6-25.6-119.466666-115.2 166.4-25.6 34.133333-4.266667 17.066667-29.866667L512 243.2m0-93.866667c-17.066667 0-29.866667 8.533333-38.4 25.6L379.733333 362.666667l-213.333333 29.866666c-38.4 4.266667-51.2 51.2-25.6 76.8l153.6 149.333334-34.133333 209.066666c-4.266667 29.866667 17.066667 51.2 42.666666 51.2 8.533333 0 12.8 0 21.333334-4.266666l183.466666-93.866667h8.533334l183.466666 93.866667c8.533333 4.266667 12.8 4.266667 21.333334 4.266666 25.6 0 46.933333-21.333333 42.666666-51.2l-34.133333-209.066666 153.6-149.333334c25.6-25.6 12.8-68.266667-25.6-72.533333l-213.333333-29.866667-93.866667-187.733333c-8.533333-21.333333-21.333333-29.866667-38.4-29.866667z" fill="currentColor"/></svg>