<svg class="icon" width="200px" height="200.00px" viewBox="0 0 1024 1024" version="1.1" xmlns="http://www.w3.org/2000/svg"><path d="M794.752 290.133333c-55.466667-46.933333-162.133333-76.8-281.6-76.8s-230.4 29.866667-285.866667 76.8c-25.6 21.333333-38.4 46.933333-38.4 72.533334v341.333333c0 85.333333 145.066667 149.333333 324.266667 149.333333s324.266667-68.266667 324.266667-149.333333v-341.333333c-4.266667-25.6-17.066667-51.2-42.666667-72.533334z m-537.6 42.666667c12.8-12.8 29.866667-25.6 55.466667-34.133333 25.6-12.8 55.466667-21.333333 89.6-25.6 34.133333-8.533333 72.533333-8.533333 110.933333-8.533334s76.8 4.266667 110.933333 8.533334 64 12.8 89.6 25.6c21.333333 8.533333 42.666667 21.333333 55.466667 34.133333 8.533333 8.533333 12.8 21.333333 12.8 29.866667s-4.266667 17.066667-12.8 29.866666c-12.8 12.8-29.866667 25.6-55.466667 34.133334-25.6 12.8-55.466667 21.333333-89.6 25.6-34.133333 8.533333-72.533333 8.533333-110.933333 8.533333s-76.8-4.266667-110.933333-8.533333-64-17.066667-89.6-25.6c-21.333333-8.533333-42.666667-21.333333-55.466667-34.133334-8.533333-12.8-12.8-21.333333-12.8-29.866666s4.266667-17.066667 12.8-29.866667z m-12.8 110.933333c51.2 42.666667 153.6 72.533333 268.8 72.533334s217.6-29.866667 268.8-72.533334v89.6c0 8.533333-4.266667 17.066667-12.8 29.866667-12.8 12.8-29.866667 25.6-55.466667 34.133333-25.6 12.8-55.466667 21.333333-89.6 25.6-34.133333 8.533333-72.533333 12.8-110.933333 12.8s-76.8-4.266667-115.2-8.533333c-29.866667-8.533333-59.733333-17.066667-85.333333-29.866667-21.333333-8.533333-42.666667-21.333333-55.466667-34.133333-8.533333-8.533333-12.8-21.333333-12.8-29.866667v-89.6z m520.533333 294.4c-12.8 12.8-29.866667 25.6-55.466666 34.133334-25.6 12.8-55.466667 21.333333-89.6 25.6-34.133333 8.533333-72.533333 8.533333-110.933334 8.533333s-76.8-4.266667-110.933333-8.533333c-34.133333-8.533333-64-17.066667-89.6-25.6-21.333333-8.533333-42.666667-21.333333-55.466667-34.133334-8.533333-8.533333-12.8-21.333333-12.8-29.866666v-93.866667c51.2 42.666667 153.6 72.533333 268.8 72.533333s217.6-29.866667 268.8-72.533333v89.6c4.266667 12.8 0 21.333333-12.8 34.133333z" fill="currentColor" /></svg>