<svg xmlns="http://www.w3.org/2000/svg" width="16" height="16" viewBox="0 0 16 16" fill="none">
  <path fill-rule="evenodd" clip-rule="evenodd" d="M14 9.84853L11.4243 12.4243C11.19 12.6586 10.8101 12.6586 10.5758 12.4243L7.9171 9.84853C7.68278 9.61421 7.68278 9.23432 7.9171 9C8.15141 8.76569 8.53131 8.76569 8.76562 9L10.4 10.5515V4.1C10.4 3.76863 10.6686 3.5 11 3.5C11.3314 3.5 11.6 3.76863 11.6 4.1L11.6 10.5515L13.1515 9C13.3858 8.76569 13.7657 8.76569 14 9C14.2344 9.23431 14.2344 9.61421 14 9.84853Z" fill="currentColor"/>
  <path fill-rule="evenodd" clip-rule="evenodd" d="M2 4.3C2 3.96863 2.26863 3.7 2.6 3.7H6.6C6.93137 3.7 7.2 3.96863 7.2 4.3C7.2 4.63137 6.93137 4.9 6.6 4.9H2.6C2.26863 4.9 2 4.63137 2 4.3Z" fill="currentColor"/>
  <path fill-rule="evenodd" clip-rule="evenodd" d="M2 8C2 7.66863 2.26863 7.4 2.6 7.4H6.6C6.93137 7.4 7.2 7.66863 7.2 8C7.2 8.33137 6.93137 8.6 6.6 8.6H2.6C2.26863 8.6 2 8.33137 2 8Z" fill="currentColor"/>
  <path fill-rule="evenodd" clip-rule="evenodd" d="M2 11.7C2 11.3686 2.26863 11.1 2.6 11.1H6.6C6.93137 11.1 7.2 11.3686 7.2 11.7C7.2 12.0314 6.93137 12.3 6.6 12.3H2.6C2.26863 12.3 2 12.0314 2 11.7Z" fill="currentColor"/>
</svg>