<svg class="icon" width="200px" height="200.00px" viewBox="0 0 1024 1024" version="1.1" xmlns="http://www.w3.org/2000/svg"><path d="M416 256a96 96 0 1 0 0 192 96 96 0 0 0 0-192zM256 352a160 160 0 1 1 320 0 160 160 0 0 1-320 0z m352.981333-131.797333a32 32 0 0 1 38.954667-23.04 160 160 0 0 1 0 310.016 32 32 0 0 1-15.872-62.037334 96 96 0 0 0 0-185.984 32 32 0 0 1-23.04-38.954666zM174.848 622.848A160 160 0 0 1 288 576h256a160 160 0 0 1 160 160v64a32 32 0 0 1-64 0v-64A96 96 0 0 0 544 640h-256a96 96 0 0 0-96 96v64a32 32 0 0 1-64 0v-64a160 160 0 0 1 46.848-113.152z m562.176-18.688a32 32 0 0 1 38.954667-22.997333A160 160 0 0 1 896 736v64.042667a32 32 0 0 1-64 0v-64a96 96 0 0 0-72.021333-92.842667 32 32 0 0 1-22.954667-38.997333z" fill="currentColor" /></svg>