<svg class="icon" width="200px" height="200.00px" viewBox="0 0 1024 1024" version="1.1" xmlns="http://www.w3.org/2000/svg"><path d="M497.792 206.592a115.754667 115.754667 0 1 0 0 231.552 115.754667 115.754667 0 0 0 0-231.552zM310.144 322.389333a187.648 187.648 0 1 1 375.253333 0 187.648 187.648 0 0 1-375.253333 0z m-77.781333 322.432a187.648 187.648 0 0 1 132.693333-54.954666h265.472a187.648 187.648 0 0 1 187.605333 187.605333V853.333333a35.925333 35.925333 0 1 1-71.850666 0v-75.861333a115.797333 115.797333 0 0 0-115.754667-115.754667H365.056a115.797333 115.797333 0 0 0-115.797333 115.754667V853.333333a35.925333 35.925333 0 1 1-71.850667 0v-75.861333c0-49.749333 19.754667-97.493333 54.954667-132.693333z" fill="currentColor"/></svg>