<svg class="icon" width="200px" height="200.00px" viewBox="0 0 1024 1024" version="1.1" xmlns="http://www.w3.org/2000/svg"><path d="M780.8 128c7.936 0 15.530667 2.986667 21.12 8.32a27.776 27.776 0 0 1 8.746667 20.138667v625.749333c0 5.12-1.450667 10.112-4.181334 14.506667a29.269333 29.269333 0 0 1-11.392 10.410666 31.104 31.104 0 0 1-30.421333-1.066666l-252.373333-154.581334-252.970667 154.666667a30.890667 30.890667 0 0 1-39.808-6.528 27.776 27.776 0 0 1-5.845333-12.8L213.333333 782.250667V156.458667a27.733333 27.733333 0 0 1 8.746667-20.138667A30.634667 30.634667 0 0 1 243.2 128h537.6z m-29.866667 56.874667H273.066667v545.28l223.232-136.405334a30.848 30.848 0 0 1 27.178666-2.474666l5.12 2.517333L750.933333 730.026667V184.874667z" fill="currentColor" /><path d="M481.792 292.693333c0-6.016 2.773333-11.818667 7.893333-16.298666a33.536 33.536 0 0 1 19.584-7.765334 35.882667 35.882667 0 0 1 21.034667 4.864c5.973333 3.626667 10.069333 8.96 11.434667 14.890667l0.469333 4.309333v192.896a21.76 21.76 0 0 1-7.978667 16.128 33.578667 33.578667 0 0 1-19.498666 7.68 35.968 35.968 0 0 1-20.906667-4.736 24.149333 24.149333 0 0 1-11.52-14.72l-0.512-4.352v-192.853333z" fill="currentColor" /><path d="M614.357333 360.576c6.4 0 12.544 2.645333 17.28 7.424a30.72 30.72 0 0 1 3.114667 38.229333 25.386667 25.386667 0 0 1-15.786667 10.794667l-4.608 0.426667H409.386667a24.32 24.32 0 0 1-17.109334-7.509334 30.72 30.72 0 0 1-3.114666-38.016 25.429333 25.429333 0 0 1 15.616-10.837333l4.608-0.512h204.928z" fill="currentColor" /></svg>