<svg class="icon" width="200px" height="200.00px" viewBox="0 0 1024 1024" version="1.1" xmlns="http://www.w3.org/2000/svg"><path d="M699.733333 832H328.533333c-85.333333 0-153.6-68.266667-153.6-157.866667V349.866667c-4.266667-38.4 8.533333-81.066667 38.4-110.933334 29.866667-29.866667 72.533333-51.2 115.2-51.2h371.2c85.333333 0 157.866667 68.266667 157.866667 153.6v328.533334c0 89.6-72.533333 162.133333-157.866667 162.133333zM328.533333 243.2c-29.866667 0-55.466667 12.8-72.533333 34.133333-21.333333 21.333333-29.866667 42.666667-29.866667 72.533334v324.266666c0 55.466667 42.666667 98.133333 102.4 98.133334h371.2c55.466667 0 98.133333-42.666667 98.133334-98.133334V345.6c0-55.466667-42.666667-102.4-98.133334-102.4H328.533333z" fill="currentColor" /><path d="M302.506667 677.546667c-4.266667 0-8.533333 0-17.066667-4.266667-12.8-8.533333-17.066667-25.6-8.533333-38.4 0 0 34.133333-51.2 106.666666-153.6 4.266667-4.266667 12.8-8.533333 17.066667-12.8 8.533333 0 17.066667 0 21.333333 4.266667l106.666667 81.066666 119.466667-166.4c8.533333-12.8 25.6-17.066667 38.4-4.266666 17.066667 8.533333 17.066667 25.6 8.533333 38.4l-136.533333 187.733333c-4.266667 4.266667-8.533333 8.533333-17.066667 8.533333s-12.8 0-21.333333-4.266666l-106.666667-81.066667-89.6 128c-4.266667 8.533333-12.8 17.066667-21.333333 17.066667z" fill="currentColor" /><path d="M707.84 353.28l-4.266667 128-128-89.6z" fill="currentColor" /></svg>