<svg class="icon" width="200px" height="200.00px" viewBox="0 0 1024 1024" version="1.1" xmlns="http://www.w3.org/2000/svg"><path d="M554.453333 268.373333l295.68 137.813334-295.68 137.898666-295.68-137.856 295.68-137.898666z m0 521.642667c-100.906667 0-213.205333-45.482667-213.205333-85.333333v-189.013334l198.997333 85.290667c4.266667 2.858667 8.533333 2.858667 14.208 2.858667a42.026667 42.026667 0 0 0 14.208-2.858667l198.997334-85.290667v189.013334c0 39.850667-112.298667 85.333333-213.205334 85.333333z m-355.370666-184.789333c15.658667 0 28.458667-12.8 28.458666-28.416v-122.24l56.832 31.232v218.88c0 79.658667 142.165333 142.165333 270.08 142.165333s270.08-62.506667 270.08-142.122667v-218.88l99.498667-54.058666a29.866667 29.866667 0 0 0 14.208-25.6 31.744 31.744 0 0 0-14.208-25.557334l-355.370667-170.581333c-8.533333-4.266667-18.474667-4.266667-27.008 0L186.282667 380.629333h-1.408c-1.408 1.408-2.816 2.858667-4.266667 2.858667H179.2c-1.408 1.408-2.858667 2.816-4.266667 5.674667 0 0 0 1.408-1.408 1.408-1.450667 1.450667-1.450667 2.858667-1.450666 4.266666v1.450667C170.666667 401.92 170.666667 403.370667 170.666667 406.186667v170.581333c0 15.616 12.8 28.416 28.416 28.416z" fill="currentColor" /></svg>