<svg class="icon" width="200px" height="200.00px" viewBox="0 0 1024 1024" version="1.1" xmlns="http://www.w3.org/2000/svg"><path d="M721.066667 170.666667H302.933333C230.4 170.666667 170.666667 230.4 170.666667 311.466667v226.133333c0 81.066667 59.733333 140.8 132.266666 140.8h413.866667c72.533333 0 132.266667-59.733333 132.266667-140.8V311.466667c4.266667-81.066667-55.466667-140.8-128-140.8z m72.533333 366.933333c0 42.666667-38.4 81.066667-72.533333 81.066667H302.933333c-42.666667 0-72.533333-38.4-72.533333-81.066667V311.466667c0-42.666667 29.866667-81.066667 72.533333-81.066667h413.866667c42.666667 0 72.533333 38.4 72.533333 81.066667v226.133333z m-38.4 243.2c0 17.066667-12.8 29.866667-29.866667 29.866667H294.4c-17.066667 0-29.866667-12.8-29.866667-29.866667 4.266667-17.066667 17.066667-29.866667 29.866667-29.866667H725.333333c17.066667 0 29.866667 12.8 29.866667 29.866667z" fill="currentColor" /><path d="M366.933333 520.533333c-4.266667 0-12.8-4.266667-21.333333-8.533333-8.533333-8.533333-8.533333-25.6 0-34.133333l115.2-128c4.266667-4.266667 12.8-4.266667 21.333333-4.266667 4.266667 0 12.8 4.266667 12.8 8.533333l68.266667 110.933334 115.2-115.2c8.533333-8.533333 25.6-4.266667 34.133333 4.266666 8.533333 8.533333 4.266667 25.6-4.266666 34.133334l-128 128c-4.266667 4.266667-8.533333 4.266667-21.333334 4.266666-4.266667 0-12.8-4.266667-12.8-8.533333l-68.266666-110.933333L384 516.266667c-8.533333 4.266667-12.8 4.266667-17.066667 4.266666z" fill="currentColor" /></svg>