<svg class="icon" width="200px" height="200.00px" viewBox="0 0 1024 1024" version="1.1" xmlns="http://www.w3.org/2000/svg"><path d="M789.333333 704h-115.2c-46.933333 0-93.866667 12.8-136.533333 38.4V345.6 341.333333l29.866667-17.066666c29.866667-21.333333 68.266667-29.866667 106.666666-29.866667h115.2v409.6z m-554.666666 0V294.4h115.2c38.4 0 72.533333 12.8 106.666666 29.866667l29.866667 17.066666v401.066667c-38.4-25.6-85.333333-38.4-136.533333-38.4H234.666667z m439.466666-469.333333c-46.933333 0-98.133333 12.8-136.533333 38.4l-25.6 21.333333-25.6-17.066667c-42.666667-25.6-89.6-38.4-136.533333-38.4H234.666667c-29.866667 0-55.466667 25.6-55.466667 55.466667v413.866667c0 29.866667 25.6 55.466667 55.466667 55.466666h115.2c38.4 0 72.533333 12.8 106.666666 29.866667l38.4 25.6c4.266667 4.266667 12.8 4.266667 17.066667 4.266667 8.533333 0 12.8 0 21.333333-4.266667l38.4-25.6c29.866667-21.333333 68.266667-29.866667 106.666667-29.866667h115.2c29.866667 0 55.466667-25.6 55.466667-55.466666V290.133333c0-29.866667-25.6-55.466667-55.466667-55.466666h-119.466667z" fill="currentColor" /></svg>